<svg xmlns="http://www.w3.org/2000/svg" viewBox="0 0 1000 1000" xml:space="preserve"><path d="M198 13c-22 8-37 23-48 47l-5 10v860l7 15c8 17 21 31 38 39l12 6h596l12-6c17-8 30-22 38-39l7-15V70l-7-14c-8-17-21-31-38-39l-12-6-295-1c-276 0-295 0-305 3zm598 34c11 6 21 18 24 28 3 11 3 839 0 851-3 10-13 21-24 27l-9 5H213l-9-5c-11-6-21-17-24-27-3-12-3-840 0-851 4-15 19-28 36-32l289-1 282 1 9 4z"/><path d="M243 88c-12 3-22 11-29 21l-5 10v55c0 59 0 60 13 73 12 13-2 12 272 12 281 0 259 1 274-15 10-12 12-24 11-79-1-49-1-52-14-65-14-14 7-13-267-13l-255 1zm498 37c4 4 4 7 4 48 0 26 0 45-2 48-2 4-7 4-249 4-189 0-248-1-250-3-2-1-2-15-2-48 0-46 0-47 5-50 4-3 31-4 247-4 240 0 243 0 247 5zM245 339c-18 7-33 21-41 40-2 4-3 14-4 23 0 14 1 18 7 31 21 41 75 50 108 18 27-27 26-70-2-97a71 71 0 0 0-68-15zm42 35c9 7 15 22 13 32-5 33-48 41-63 11-8-17-1-39 16-46 10-4 25-3 34 3zM388 340c-16 6-28 17-36 34-9 19-9 38-1 56 24 52 95 54 121 4 9-18 11-30 6-47-6-23-25-43-46-49-12-3-32-2-44 2zm44 35c22 16 18 48-8 58-17 7-35-1-42-18-13-32 24-60 50-40zM543 338c-21 7-38 23-45 43-10 24-2 55 18 72 29 25 70 23 96-6 12-14 17-27 16-48-2-25-15-46-38-57-11-5-37-7-47-4zm33 34c12 6 18 16 18 30 0 28-31 43-53 27a33 33 0 0 1-2-52c10-10 23-11 37-5zM666 356c-19 7-23 16-23 47 0 25 3 33 15 41 7 5 9 5 57 5 46 0 51 0 57-4 12-8 15-15 15-44s-2-34-16-43c-7-3-12-4-52-4-34-1-47 0-53 2zm88 46v15h-77v-30h77v15zM243 485c-21 9-35 25-41 48s1 45 18 64c32 31 88 22 107-18 8-18 10-28 5-45-5-23-22-42-43-50-13-4-33-4-46 1zm39 33c9 5 17 15 18 25 2 11-5 27-16 34-6 4-9 5-19 4-11-1-14-2-20-8-17-17-14-41 6-54 8-5 23-5 31-1z"/><path d="M388 485c-16 7-28 18-36 34-5 12-6 16-6 29 0 47 46 80 91 63 16-6 27-17 36-33 6-12 7-17 7-30 0-46-48-80-92-63zm42 35c11 8 16 15 16 28 0 19-15 33-33 33-19 0-34-14-34-33 0-18 15-33 34-33 6 0 12 2 17 5zM541 483l-17 9a67 67 0 0 0 6 116c15 8 37 10 53 4 16-5 36-25 41-40 5-13 5-34 1-47-5-13-20-30-34-37-12-6-37-9-50-5zm38 37c28 19 16 61-18 61-20 0-35-15-33-36 2-18 15-30 34-30 7 0 12 2 17 5zM660 505c-14 10-16 14-16 43 0 30 2 34 16 44 7 5 8 5 57 4 56-1 57-1 66-19 4-8 5-13 5-30 0-25-4-36-18-42-8-4-13-5-56-5-45 0-47 1-54 5zm94 42v15h-77v-30h77v15zM251 629c-15 4-24 10-34 21a60 60 0 0 0-17 44c0 20 6 33 20 48 14 14 27 19 47 19 21 0 35-5 48-20 14-15 19-27 19-45 0-45-42-78-83-67zm31 35c9 4 17 14 18 24 2 11-5 27-15 34-10 6-26 6-36 0s-17-21-15-32c3-23 29-37 48-26zM396 630c-31 8-50 33-50 64 0 20 4 32 19 47 13 15 27 20 48 20 20 0 33-5 47-19s20-28 20-48c0-11-2-18-5-26-9-20-28-35-49-39-14-3-16-3-30 1zm34 35c16 11 20 27 13 43-7 14-14 17-31 17-13 0-15 0-22-7-17-17-14-41 6-54 10-5 25-5 34 1zM548 628c-13 3-24 9-34 20a66 66 0 0 0 17 106c13 7 16 8 31 8 13 0 18-1 28-6 14-7 26-19 33-35 5-11 5-14 5-30-2-27-15-46-39-58-13-5-29-7-41-5zm33 38c18 14 18 42-2 56-10 6-27 6-36 0-21-15-20-47 2-58 10-5 28-4 36 2zM663 648c-15 7-20 18-20 47 0 25 4 34 17 42 8 4 11 4 56 4 46 0 48 0 55-4 15-10 16-14 16-44 0-28-1-32-15-42-5-4-9-5-54-5-37 0-50 0-55 2zm91 46v15h-77v-29h77v14zM256 774c-14 2-28 9-38 20a60 60 0 0 0-18 46c0 26 13 48 38 61 9 5 14 6 28 6 22 0 36-6 49-21 14-15 19-27 19-46 0-26-14-49-37-60-15-7-26-9-41-6zm25 34c4 2 10 7 13 11 12 16 7 39-10 49s-41 2-48-16a33 33 0 0 1 45-44zM401 774c-22 3-45 22-52 43-8 25-3 51 16 70 26 27 69 27 95 0 13-13 20-28 20-47-1-12-2-19-5-26a70 70 0 0 0-74-40zm30 37c15 11 19 28 11 44a33 33 0 0 1-59-1c-3-5-5-12-5-15 0-12 9-25 21-31 8-4 25-2 32 3zM551 774c-21 3-40 17-51 37-7 14-8 41-1 57 6 13 21 27 34 34 15 7 40 7 55 0s28-20 35-35c5-12 5-15 5-30-1-20-6-31-19-44a66 66 0 0 0-58-19zm26 35c20 11 24 37 8 53-16 17-46 12-54-9-13-29 18-58 46-44zM663 793c-16 8-20 18-20 47 0 19 1 23 5 30 8 15 13 17 68 17 46 0 48-1 55-5 15-10 16-14 16-43s-1-33-15-43c-5-4-9-4-54-5-37 0-50 0-55 2zm91 47v15h-77v-30h77v15z"/></svg>