<?xml version="1.0" encoding="utf-8"?>
<!-- Svg Vector Icons : http://www.onlinewebfonts.com/icon -->
<!DOCTYPE svg PUBLIC "-//W3C//DTD SVG 1.1//EN" "http://www.w3.org/Graphics/SVG/1.1/DTD/svg11.dtd">
<svg version="1.1" xmlns="http://www.w3.org/2000/svg" xmlns:xlink="http://www.w3.org/1999/xlink" x="0px" y="0px" viewBox="0 0 1000 1000" enable-background="new 0 0 1000 1000" xml:space="preserve">
<metadata> Svg Vector Icons : http://www.onlinewebfonts.com/icon </metadata>
<g><g transform="translate(0.000000,511.000000) scale(0.100000,-0.100000)"><path d="M1978.5,4976.4c-215.5-74.7-373.4-228.3-482.2-463l-49.1-106.7V107.1v-4299.6l68.3-143c81.1-172.8,217.6-311.5,386.2-394.8l121.6-59.7H5000h2976.6l121.6,59.7c168.6,83.2,305.1,221.9,386.2,394.8l68.3,143V107.1v4299.6l-68.3,143c-81.1,172.8-217.6,311.5-386.2,394.8l-121.6,59.7l-2944.6,4.3C2268.7,5012.6,2081,5010.5,1978.5,4976.4z M7957.4,4637.1c113.1-59.7,213.4-177.1,241.1-277.4c32-113.1,32-8392.2,0-8505.3c-27.8-100.3-128-217.6-241.1-277.4l-87.5-47H5000H2130l-87.5,47c-113.1,59.7-213.4,177.1-241.1,277.4c-32,113.1-32,8392.2,0,8505.3c40.5,147.2,192,281.7,360.6,315.8c40.5,8.5,1342.2,12.8,2891.3,10.7L7870,4684L7957.4,4637.1z"/><path d="M2426.6,4227.4c-115.2-27.7-219.8-108.8-281.7-211.2l-57.6-100.3v-544.1c0-593.2,2.1-603.9,132.3-734c123.8-125.9-21.3-119.5,2718.5-119.5c2808.1,0,2592.6-12.8,2737.7,149.4c106.7,119.5,125.9,239,115.2,787.4c-8.5,499.3-12.8,527.1-136.6,650.8c-140.8,140.8,66.1,130.2-2675.8,134.4C3610.9,4240.2,2462.9,4235.9,2426.6,4227.4z M7411.2,3862.5c40.5-40.5,42.7-70.4,42.7-482.2c0-260.3-8.5-454.5-21.3-480.1c-21.3-40.5-72.6-40.5-2492.3-40.5c-1892.7,0-2477.3,6.4-2496.5,25.6c-19.2,19.2-25.6,157.9-25.6,488.6c0,456.6,0,465.2,46.9,497.2c42.7,29.9,313.7,34.1,2475.2,34.1C7340.8,3905.2,7368.5,3905.2,7411.2,3862.5z"/><path d="M2454.4,1720.2c-181.4-66.2-330.7-209.1-414-396.9c-21.3-44.8-34.1-140.8-36.3-234.7c-2.1-140.8,6.4-177.1,68.3-305.1c204.8-416.1,749-507.8,1077.6-179.2c268.9,268.9,258.2,695.6-21.3,966.6C2964.4,1730.9,2669.9,1794.9,2454.4,1720.2z M2866.2,1366c91.8-66.1,157.9-213.4,138.7-317.9c-59.7-330.7-480.1-403.3-631.6-106.7c-83.2,166.4-8.5,384.1,160,458.8C2625.1,1442.8,2780.9,1425.7,2866.2,1366z"/><path d="M3877.6,1705.3c-157.9-59.7-273.1-168.6-354.2-332.9c-91.7-187.8-96-382-12.8-563.3c236.8-516.4,953.8-539.9,1207.7-40.5c89.6,181.4,106.7,305.1,59.8,475.8c-61.9,228.3-249.7,426.8-460.9,484.4C4197.7,1762.9,3997.1,1752.2,3877.6,1705.3z M4323.6,1359.6c215.5-164.3,172.8-484.4-78.9-580.4c-175-68.3-354.2,10.7-426.8,185.6C3689.9,1276.4,4056.9,1562.3,4323.6,1359.6z"/><path d="M5426.8,1730.9c-204.8-66.2-373.4-226.2-450.2-426.8c-91.8-243.3-12.8-550.5,187.8-725.5c283.8-251.8,695.6-224.1,951.7,61.9c125.9,140.8,170.7,273.1,160,475.8c-12.8,253.9-149.4,463-375.5,574C5793.8,1741.5,5531.3,1765,5426.8,1730.9z M5759.6,1385.2c121.6-57.6,183.5-160,183.5-296.6c0-279.5-309.4-433.2-531.3-264.6c-170.7,130.2-183.5,367-23.5,514.2C5492.9,1436.4,5620.9,1453.5,5759.6,1385.2z"/><path d="M6658,1549.5c-183.5-66.2-228.3-160-228.3-465.2c0-251.8,29.9-335,149.4-416.1c68.3-46.9,87.5-49.1,571.9-49.1c456.6,0,505.7,4.3,567.6,40.5c125.9,79,151.5,151.5,151.5,443.8c0,290.2-19.2,337.1-162.2,422.5c-66.2,38.4-117.4,42.7-520.7,47C6845.7,1577.2,6719.8,1573,6658,1549.5z M7539.2,1088.6V939.2h-384.1H6771v149.4V1238h384.1h384.1V1088.6z"/><path d="M2433,256.4c-213.4-83.2-352.1-243.3-414-478c-59.7-228.3,6.4-452.4,185.6-633.7c317.9-317.9,870.6-224,1064.8,179.2c85.3,177.1,98.2,279.5,55.5,446c-57.6,230.4-226.2,422.5-437.4,497.2C2763.8,309.8,2558.9,305.5,2433,256.4z M2821.4-74.3c91.8-47,166.4-147.2,183.5-245.4c19.2-113.1-53.3-266.7-160-337.1c-61.9-42.7-96-49.1-198.4-42.7c-104.6,8.5-132.3,19.2-196.3,81.1C2277.3-452,2305-208.7,2512-82.9C2590.9-33.8,2738.2-29.5,2821.4-74.3z"/><path d="M3884,256.4c-160-61.9-281.7-175-360.6-335c-57.6-119.5-68.3-164.3-68.3-294.5c0-471.6,467.3-795.9,911.1-629.5c162.2,61.9,277.4,168.6,360.6,337.1c59.7,119.5,70.4,166.4,70.4,292.3C4797.3,94.2,4317.2,427.1,3884,256.4z M4295.8-89.2c117.4-81.1,160-155.8,160-283.8c0-187.8-143-330.7-330.7-330.7c-187.8,0-330.7,143-330.7,330.7c0,187.8,143,330.7,330.7,330.7C4193.4-42.3,4246.8-57.2,4295.8-89.2z"/><path d="M5414,277.8c-38.4-12.8-113.1-53.3-170.7-89.6c-428.9-290.2-399-909,57.6-1156.5c149.4-81.1,367-100.3,533.4-44.8c153.6,51.2,358.5,253.9,409.7,403.3c44.8,132.3,46.9,339.3,2.1,467.3c-44.8,130.2-200.6,300.9-337.2,371.3C5787.4,290.6,5535.6,316.2,5414,277.8z M5789.5-91.4c279.5-187.8,155.8-612.4-179.2-612.4c-204.8,0-347.8,157.9-328.6,362.7c19.2,183.5,147.2,296.6,339.3,298.7C5687.1-42.3,5742.6-57.2,5789.5-91.4z"/><path d="M6600.4,60.1c-145.1-100.3-160-140.8-160-433.2c0-292.3,14.9-332.9,162.2-433.2c70.4-49.1,79-49.1,567.6-42.7c561.2,6.4,571.8,10.7,663.6,187.8c38.4,79,46.9,128,46.9,296.6c0,258.2-42.7,362.7-179.2,426.8c-83.2,40.5-130.1,44.8-561.2,44.8C6687.8,107.1,6668.6,104.9,6600.4,60.1z M7539.2-362.4v-149.4h-384.1H6771v149.4V-213h384.1h384.1V-362.4z"/><path d="M2505.6-1183.9c-145.1-40.5-232.6-93.9-332.9-204.9c-121.6-134.4-168.6-258.2-168.6-445.9c-2.1-198.4,53.3-328.6,194.2-473.7c138.7-140.8,275.3-196.3,475.8-196.3c204.8,0,345.7,57.6,480.1,202.7c136.6,147.2,187.8,271,187.8,456.6C3342-1397.3,2923.8-1068.7,2505.6-1183.9z M2821.4-1525.3c91.8-47,166.4-147.2,183.5-245.4c19.2-111-53.3-266.7-157.9-335c-96-64-258.2-66.1-356.3-6.4c-96,59.7-166.4,211.2-151.5,324.3C2369-1563.7,2627.2-1422.9,2821.4-1525.3z"/><path d="M3956.6-1186c-307.3-83.2-499.3-330.7-501.4-648.7c0-196.3,46.9-315.8,189.9-467.3c134.4-145.1,275.3-202.7,480.1-202.7c200.6,0,337.1,55.5,475.8,196.3c140.8,143,194.2,275.3,194.2,473.7c0,119.5-12.8,185.6-46.9,266.7c-89.6,198.4-277.4,347.8-490.8,392.6C4118.7-1145.5,4099.5-1147.6,3956.6-1186z M4295.8-1540.2c160-111,209.1-266.7,130.2-426.8c-68.3-138.7-134.4-177.1-305.1-177.1c-134.4,0-147.2,4.3-219.8,74.7c-172.8,166.4-145.1,409.7,61.9,535.6C4056.9-1476.2,4206.2-1480.5,4295.8-1540.2z"/><path d="M5475.8-1173.2c-128-27.7-239-89.6-339.3-196.3c-324.3-339.3-241.1-851.4,170.7-1062.6c130.2-66.2,166.4-74.7,309.4-74.7c134.4,0,185.6,10.7,283.8,59.7c143,70.4,258.2,192,330.7,350c46.9,102.4,53.3,138.7,44.8,292.3c-14.9,277.4-143,469.4-390.5,580.4C5759.6-1168.9,5599.6-1147.6,5475.8-1173.2z M5806.6-1550.9c187.8-140.8,181.4-422.5-17.1-554.8c-98.1-68.3-266.7-68.3-362.7,0c-207,140.8-192,467.3,25.6,578.3C5546.2-1480.5,5727.6-1491.2,5806.6-1550.9z"/><path d="M6632.4-1373.8c-155.8-70.4-202.7-177.1-202.7-465.2c0-251.8,38.4-345.7,170.7-420.4c74.7-42.7,111-44.8,559.1-44.8c463,0,482.2,2.1,550.5,49.1c145.1,98.1,160,138.7,160,431c0,288.1-12.8,326.5-147.2,424.6c-55.5,42.7-91.7,44.8-542,49.1C6809.5-1346.1,6681.4-1350.3,6632.4-1373.8z M7539.2-1834.7v-149.4h-384.1H6771v149.4v149.4h384.1h384.1V-1834.7z"/><path d="M2563.2-2626.3c-143-21.3-283.8-98.2-384.1-207c-125.9-138.7-175-260.3-175-452.4c-2.1-268.8,130.2-484.4,377.7-612.4c91.8-46.9,138.7-57.6,281.7-57.6c215.5-2.1,352.1,55.5,490.8,202.7c138.7,149.4,189.9,271,189.9,458.8c-2.1,266.7-140.8,490.8-377.7,603.9C2819.3-2619.9,2710.4-2602.9,2563.2-2626.3z M2810.7-2974.1c38.4-17.1,98.2-66.1,132.3-108.8c115.2-153.6,66.1-390.5-104.6-490.8c-166.4-98.1-405.4-12.8-473.7,168.6C2255.9-3119.2,2526.9-2856.8,2810.7-2974.1z"/><path d="M4014.2-2626.3c-224-34.1-450.2-221.9-522.8-431c-85.4-253.9-27.7-512.1,157.9-702c262.5-266.7,687.1-268.8,953.8-4.3c130.2,130.2,192,285.9,192,478c-2.1,115.2-14.9,187.8-46.9,260.3C4622.3-2745.8,4317.2-2579.4,4014.2-2626.3z M4312.9-3001.9c149.4-111,189.9-273.1,106.7-433.2c-125.9-243.3-471.6-239-591.1,8.5c-25.6,49.1-44.8,115.2-44.8,147.2c0,123.8,83.2,251.8,202.7,305.1C4071.8-2933.6,4240.4-2948.5,4312.9-3001.9z"/><path d="M5512.1-2626.3c-211.3-32-403.3-170.7-507.8-371.3c-76.8-145.1-81.1-416.1-10.7-569.7c57.6-128,202.7-271,337.1-339.3c145.1-70.4,401.2-72.6,548.4-4.3c149.4,68.3,279.5,200.6,347.8,349.9c51.2,117.4,57.6,149.4,49.1,305.1c-10.7,200.6-57.6,309.4-187.8,439.6C5934.6-2662.6,5727.6-2594.3,5512.1-2626.3z M5768.2-2984.8c198.4-106.7,239-362.7,81.1-529.2c-157.9-166.4-456.6-115.2-542,91.7C5183.5-3127.8,5490.8-2835.4,5768.2-2984.8z"/><path d="M6632.4-2824.8c-157.9-70.4-202.7-177.1-202.7-467.3c0-185.6,8.5-230.4,49.1-300.9c85.4-151.5,130.2-162.2,678.5-162.2c465.2,0,484.4,2.1,552.7,49.1c145.1,98.2,160,138.7,160,431c0,288.1-12.8,326.5-147.2,424.6c-55.5,42.7-91.7,44.8-542,49.1C6807.3-2797.1,6681.4-2801.3,6632.4-2824.8z M7539.2-3285.7V-3435h-384.1H6771v149.4v149.4h384.1h384.1V-3285.7z"/></g></g>
</svg>