<svg xmlns="http://www.w3.org/2000/svg" viewBox="0 0 1000 1000" xml:space="preserve"><path d="M685 379h139v139H685V379zM685 549h139v139H685V549zM786 51c0-23-18-41-41-41h-7c-22 0-41 18-41 41v77h89V51zM515 375h139v139H515V375zM309 51c0-23-18-41-41-41h-7c-22 0-41 18-41 41v77h89V51zM346 377h138v139H346V377zM172 723h139v139H172V723zM176 551h139v139H176V551z"/><path d="M852 128h-66v86c0 22-18 40-41 40h-7c-22 0-41-18-41-40v-86H309v86c0 22-18 40-41 40h-7c-22 0-41-18-41-40v-86h-72c-43 0-79 35-79 79v704c0 43 36 79 79 79h526l257-261V207c0-44-36-79-79-79zm41 605-156-1c-43 0-70 29-70 72l1 147H146c-20 0-41-13-41-36V288h788v445z"/><path d="M346 547h138v139H346V547zM176 381h139v139H176V381zM515 545h139v139H515V545zM342 719h139v139H342V719z"/></svg>