<?xml version="1.0" encoding="utf-8"?>
<!-- Svg Vector Icons : http://www.onlinewebfonts.com/icon -->
<!DOCTYPE svg PUBLIC "-//W3C//DTD SVG 1.1//EN" "http://www.w3.org/Graphics/SVG/1.1/DTD/svg11.dtd">
<svg version="1.1" xmlns="http://www.w3.org/2000/svg" xmlns:xlink="http://www.w3.org/1999/xlink" x="0px" y="0px" viewBox="0 0 1000 1000" enable-background="new 0 0 1000 1000" xml:space="preserve">
<metadata> Svg Vector Icons : http://www.onlinewebfonts.com/icon </metadata>
<g><path d="M981.2,435.1L514.6,61.8c-8.5-6.8-20.6-6.8-29.1,0L18.8,435.1c-10.1,8-11.7,22.7-3.6,32.8c8,10.1,22.8,11.7,32.8,3.6l78.8-63v464.8c0,38.6,31.4,70,70,70h606.7c38.6,0,70-31.4,70-70V408.5l78.8,63c4.3,3.5,9.5,5.1,14.6,5.1c6.9,0,13.6-3,18.2-8.8C992.9,457.8,991.3,443.1,981.2,435.1z M430,896.7V731.4c0-38.6,31.4-70,70-70c38.6,0,70,31.4,70,70v165.3H430z M826.7,873.3c0,12.9-10.5,23.3-23.3,23.3H616.7V731.4c0-64.3-52.3-116.7-116.7-116.7c-64.3,0-116.7,52.3-116.7,116.7v165.3H196.7c-12.9,0-23.3-10.5-23.3-23.3V371.2L500,109.9l326.7,261.3V873.3z"/></g>
</svg>