<svg xmlns="http://www.w3.org/2000/svg" viewBox="0 0 1000 1000" xml:space="preserve"><path d="M151 176h446v33H151v-33zM151 337h446v34H151v-34zM151 499h175v33H151v-33zM151 660h120v34H151v-34z"/><path d="M881 475c-45-45-102-74-164-84V82c0-40-32-72-71-72H103c-40 0-72 32-72 72v706c0 40 32 72 72 72h316a304 304 0 0 0 248 130 300 300 0 0 0 302-302c0-80-31-156-88-213zM103 826c-21 0-38-17-38-38V82c0-21 17-38 38-38h543c21 0 38 17 38 38v305a299 299 0 0 0-318 301c0 49 11 96 33 138H103zm564 131a268 268 0 1 1 1-537 268 268 0 0 1-1 537z"/><path d="M642 822h51v50h-51v-50zM752 533c-21-19-49-28-84-28-34 0-61 9-81 26-20 18-32 44-36 78l45 5c4-25 12-43 25-55s28-18 47-18c20 0 36 7 50 20 13 13 20 28 20 45 0 10-2 18-7 27-4 8-14 18-30 32-15 13-26 24-32 31a102 102 0 0 0-24 74v13h42c1-18 2-31 4-39 2-7 6-14 10-21 4-6 14-15 28-28 22-19 36-35 44-49a91 91 0 0 0-21-113z"/></svg>