<?xml version="1.0" encoding="utf-8"?>
<!-- Svg Vector Icons : http://www.onlinewebfonts.com/icon -->
<!DOCTYPE svg PUBLIC "-//W3C//DTD SVG 1.1//EN" "http://www.w3.org/Graphics/SVG/1.1/DTD/svg11.dtd">
<svg version="1.1" xmlns="http://www.w3.org/2000/svg" xmlns:xlink="http://www.w3.org/1999/xlink" x="0px" y="0px" viewBox="0 0 1000 1000" enable-background="new 0 0 1000 1000" xml:space="preserve">
<metadata> Svg Vector Icons : http://www.onlinewebfonts.com/icon </metadata>
<g><path d="M150.9,175.6h446.5v33.5H150.9V175.6L150.9,175.6z"/><path d="M150.9,337.2h446.5v33.5H150.9V337.2L150.9,337.2z"/><path d="M150.9,498.8h175v33.5h-175V498.8z"/><path d="M150.9,660.4h120.2V694H150.9V660.4z"/><path d="M880.5,475.1c-45-45-101.8-74-163.3-84.2V81.6c0-39.5-32.1-71.6-71.6-71.6H102.7c-39.5,0-71.6,32.1-71.6,71.6V788c0,39.5,32.1,71.6,71.6,71.6h316.1c10.3,14.9,22,29,35.1,42.1c57,57,132.7,88.3,213.3,88.3c80.6,0,156.3-31.4,213.3-88.3c57-57,88.4-132.7,88.4-213.3C968.8,607.8,937.5,532,880.5,475.1z M102.7,826.1c-21,0-38-17.1-38-38l0-706.5c0-21,17.1-38,38-38h542.9c21,0,38,17.1,38,38v305.6c-5.5-0.3-10.9-0.5-16.4-0.5c-80.6,0-156.3,31.4-213.3,88.4c-57,57-88.4,132.7-88.4,213.3c0,48.7,11.5,95.6,33.1,137.7L102.7,826.1L102.7,826.1z M667.2,956.5c-147.8,0-268.1-120.3-268.1-268.1c0-147.8,120.3-268.1,268.1-268.1c147.8,0,268.1,120.3,268.1,268.1S815,956.5,667.2,956.5z"/><path d="M642,821.6h50.5v50.5H642V821.6z"/><path d="M752.3,533.4c-21-19.2-49.2-28.8-84.6-28.8c-33.4,0-60.2,9-80.5,26.9c-20.3,17.9-32.5,43.7-36.6,77.4l45.6,5.4c3.9-25.1,12.2-43.6,24.9-55.5c12.7-11.8,28.4-17.8,47.3-17.8c19.6,0,36.1,6.5,49.6,19.6c13.5,13.1,20.2,28.2,20.2,45.5c0,9.5-2.3,18.3-6.9,26.4c-4.6,8.1-14.6,18.9-30,32.4c-15.4,13.6-26,23.9-31.9,30.9c-8.1,9.7-13.9,19.3-17.5,28.8c-4.9,12.7-7.4,27.7-7.4,45.1c0,3,0.1,7.4,0.2,13.3h42.7c0.3-17.8,1.6-30.6,3.7-38.5c2.1-7.9,5.4-14.9,9.9-21c4.4-6.1,13.9-15.5,28.4-28.4c21.5-19.1,36-35.3,43.4-48.6c7.4-13.3,11.1-27.9,11.1-43.6C783.8,575.9,773.3,552.6,752.3,533.4z"/></g>
</svg>