 <svg version="1.0" xmlns="http://www.w3.org/2000/svg" width="700.000000pt" height="700.000000pt" viewBox="0 0 700.000000 700.000000" preserveAspectRatio="xMidYMid meet">
<metadata>
Created by potrace 1.12, written by Peter Selinger 2001-2015
</metadata>
<g transform="translate(0.000000,700.000000) scale(0.100000,-0.100000)" fill="#3b0b37" stroke="none">
<path d="M2680 5710 c-159 -58 -298 -216 -381 -434 -23 -62 -30 -71 -63 -82
-43 -15 -43 -15 -22 91 19 95 29 195 19 195 -13 0 -143 -126 -143 -139 0 -16
21 -14 43 7 20 17 20 16 13 -65 -3 -45 -9 -89 -12 -97 -7 -18 -35 -29 -144
-57 -47 -12 -91 -27 -98 -34 -8 -7 -15 -28 -15 -46 -2 -30 1 -34 22 -31 14 2
33 -5 47 -19 20 -19 24 -32 24 -79 0 -31 -3 -60 -7 -64 -4 -3 -23 9 -42 28
-20 19 -58 46 -85 60 -62 33 -150 35 -213 6 -83 -37 -186 -166 -229 -287 -11
-30 -18 -80 -18 -133 -1 -72 3 -91 22 -122 37 -59 66 -73 152 -73 84 0 135 19
226 86 140 103 303 359 374 590 22 72 26 78 59 88 19 5 36 9 37 8 1 -1 -2 -22
-7 -47 -62 -297 -17 -477 123 -496 136 -19 272 108 333 311 9 33 11 55 3 81
-12 43 -32 40 -36 -7 -14 -183 -135 -323 -264 -306 -72 10 -103 58 -114 177
-8 85 13 276 33 296 8 7 33 18 56 24 217 55 353 154 435 318 64 130 55 225
-23 258 -42 17 -38 17 -105 -6z m79 -73 c30 -25 42 -74 31 -124 -23 -102 -92
-178 -211 -232 -74 -33 -227 -77 -236 -67 -9 9 24 107 64 190 58 120 146 211
238 244 33 12 93 6 114 -11z m-654 -589 c-86 -286 -157 -425 -272 -527 -86
-77 -171 -115 -259 -115 -62 -1 -75 2 -106 26 -91 69 -70 261 43 383 115 125
240 113 383 -35 38 -39 71 -68 74 -65 10 10 31 141 32 198 0 32 -7 73 -14 92
-15 34 -15 35 12 41 15 3 38 10 52 14 47 16 62 12 55 -12z"></path>
<path d="M3762 5622 c-75 -37 -92 -63 -44 -70 41 -6 40 -16 -19 -214 l-21 -67
-58 -22 c-77 -28 -175 -109 -235 -195 -86 -123 -146 -316 -116 -373 36 -66
183 41 277 203 40 69 40 61 -4 -102 -35 -129 -32 -137 40 -102 66 34 108 68
102 85 -5 11 -11 12 -30 3 -46 -21 -48 0 -14 123 37 133 67 233 82 271 8 23
15 27 34 22 19 -5 24 -2 24 13 0 10 -7 29 -16 41 -9 13 -14 31 -11 40 3 9 17
58 31 107 14 50 33 113 41 140 20 68 29 135 19 134 -5 -1 -42 -18 -82 -37z
m-124 -494 c-23 -82 -28 -92 -28 -55 0 32 -9 57 -21 57 -5 0 -9 -6 -9 -14 0
-28 -50 -167 -81 -226 -44 -84 -106 -152 -133 -148 -19 3 -21 9 -20 78 0 55 7
89 24 130 44 103 143 206 227 236 63 22 63 21 41 -58z"></path>
<path d="M3961 5610 c-19 -11 -47 -24 -62 -29 -16 -5 -29 -17 -29 -26 0 -13 6
-15 30 -10 25 5 30 3 30 -12 0 -21 -46 -215 -59 -253 -5 -14 -19 -56 -30 -95
-26 -90 -117 -396 -137 -459 -8 -26 -13 -50 -10 -53 2 -3 20 1 40 8 28 10 38
22 52 58 53 142 149 308 222 384 67 69 68 45 7 -133 -46 -136 -85 -284 -85
-326 0 -26 10 -30 38 -15 9 6 38 20 65 32 32 15 47 29 47 42 0 16 -5 18 -30
12 -27 -6 -30 -4 -30 17 0 13 29 110 65 215 36 105 65 203 65 217 0 37 -37 53
-76 33 -49 -25 -106 -86 -175 -187 -42 -62 -60 -72 -41 -23 6 15 22 66 36 113
14 47 39 131 56 188 34 113 69 265 70 300 0 27 -14 27 -59 2z"></path>
<path d="M3317 5472 c-22 -24 -22 -68 0 -77 24 -9 55 31 51 64 -4 32 -29 38
-51 13z"></path>
<path d="M3255 5260 c-60 -35 -61 -36 -68 -10 -18 68 -235 -48 -347 -186 -87
-107 -170 -296 -170 -387 0 -37 34 -70 63 -61 29 8 119 95 175 169 25 33 42
51 38 40 -29 -78 -45 -185 -28 -185 11 0 104 57 131 80 29 25 22 57 -8 40 -46
-24 -47 -17 -9 113 11 37 18 70 15 73 -3 3 -15 0 -27 -6 -12 -7 -20 -8 -18 -3
41 77 55 176 28 207 -9 12 -10 20 -3 27 15 15 120 24 136 11 8 -7 18 -7 27 -2
8 6 23 10 33 10 22 0 21 -6 -55 -235 -59 -180 -83 -305 -59 -305 22 0 131 80
131 96 0 12 -6 15 -25 10 -14 -4 -25 -4 -25 0 0 16 34 137 60 215 32 94 65
223 74 282 6 46 -2 46 -69 7z m-249 -117 c-3 -10 -12 -47 -21 -83 -23 -93
-106 -256 -163 -320 -63 -70 -77 -63 -69 33 10 118 109 293 205 361 43 30 55
33 48 9z"></path>
<path d="M4635 5033 c-115 -35 -220 -150 -260 -285 -28 -95 -12 -168 37 -168
39 0 105 40 162 97 52 53 55 54 46 24 -6 -17 -14 -46 -20 -63 -5 -18 -10 -46
-10 -62 0 -28 1 -28 38 -22 64 10 114 35 110 54 -2 12 -11 16 -31 14 -34 -4
-35 11 -7 91 25 72 25 77 -4 77 l-23 0 24 48 c19 35 23 58 20 90 -9 79 -38 81
-52 3 -17 -91 -119 -246 -186 -281 -19 -11 -24 -10 -36 6 -20 26 -8 115 23
177 80 157 226 210 353 128 14 -9 32 -16 40 -16 9 0 17 -8 19 -18 4 -21 -31
-138 -89 -300 -22 -60 -37 -112 -34 -117 6 -10 75 10 75 23 0 24 82 177 116
216 42 49 110 101 131 101 20 0 16 -21 -23 -106 -45 -98 -80 -196 -89 -251
l-7 -43 40 0 c58 0 102 18 102 42 0 14 -5 18 -19 13 -10 -3 -23 1 -30 9 -9 11
2 43 54 156 75 162 82 207 33 224 -38 13 -101 -13 -164 -69 l-52 -45 25 71
c13 39 23 85 21 102 -3 31 -4 31 -53 29 -44 -3 -51 0 -60 20 -20 45 -126 60
-220 31z"></path>
<path d="M5474 4909 c-3 -6 5 -22 20 -35 14 -14 26 -27 26 -29 0 -2 -12 -35
-26 -73 l-26 -70 -36 10 c-114 31 -221 -19 -279 -131 -55 -106 -42 -201 28
-201 40 0 121 44 168 91 26 26 41 36 36 24 -30 -82 -55 -157 -55 -170 0 -11
12 -15 48 -15 59 0 94 9 89 23 -2 7 -14 14 -28 17 -37 10 -31 39 46 223 14 33
18 36 36 26 30 -15 36 -2 16 32 -17 30 -16 32 18 113 20 45 37 94 38 110 2 24
-3 29 -53 46 -30 11 -56 19 -57 20 -1 0 -5 -5 -9 -11z m-56 -240 c26 -10 27
-24 7 -70 l-14 -34 -1 32 c0 55 -17 46 -54 -31 -67 -140 -176 -185 -176 -74 0
42 36 122 67 150 45 41 107 50 171 27z"></path>
<path d="M2796 3908 c-32 -102 -32 -108 -1 -164 40 -71 55 -94 123 -182 l64
-83 -18 -72 c-60 -249 -145 -396 -259 -448 -49 -23 -130 -24 -180 -3 -149 62
-224 268 -152 416 36 74 74 101 149 106 48 4 67 0 111 -22 52 -25 134 -97 164
-143 9 -13 20 -23 27 -23 14 0 116 95 116 109 0 21 -21 22 -46 2 -15 -12 -29
-21 -33 -21 -3 0 -30 23 -60 51 -77 71 -141 102 -216 103 -191 3 -311 -172
-275 -398 19 -119 76 -203 168 -247 63 -31 169 -24 232 15 134 83 244 251 296
451 9 33 18 63 20 66 2 4 51 -41 108 -100 l105 -106 0 -125 c-1 -168 24 -240
81 -240 48 0 97 84 107 184 9 100 0 128 -67 200 l-60 63 15 78 c45 231 122
378 223 421 49 21 140 14 158 -11 8 -11 14 -40 14 -67 0 -76 22 -60 43 30 9
42 17 89 17 104 0 24 -3 26 -52 30 -118 10 -209 -26 -277 -109 -57 -69 -122
-222 -162 -380 -7 -29 -15 -53 -19 -53 -6 0 -149 145 -187 190 l-21 25 19 85
c23 103 22 100 4 100 -15 0 -39 -39 -59 -98 l-12 -34 -63 91 c-81 118 -94 152
-92 229 2 91 -20 83 -53 -20z m533 -784 c45 -59 55 -144 23 -184 -19 -23 -22
-24 -38 -8 -9 9 -20 36 -25 60 -10 54 -12 178 -1 178 4 0 22 -21 41 -46z"></path>
<path d="M4119 3817 c-102 -63 -156 -131 -208 -259 -32 -79 -42 -95 -69 -107
-38 -17 -42 -41 -7 -41 29 0 30 -5 10 -79 -8 -31 -26 -105 -40 -166 -14 -60
-32 -132 -39 -160 -8 -27 -24 -86 -36 -130 -38 -141 -89 -277 -116 -312 -35
-46 -84 -67 -129 -54 -18 5 -36 6 -39 3 -12 -12 -5 -50 12 -65 77 -69 194 62
268 298 15 49 37 96 49 108 13 12 28 45 34 72 6 28 29 118 51 200 22 83 47
180 56 218 l16 67 44 0 c55 0 61 25 9 34 -19 4 -35 12 -35 18 0 28 54 179 80
226 23 39 42 58 75 74 41 20 45 20 68 5 22 -14 25 -21 20 -58 -5 -33 -3 -41 8
-37 16 5 53 133 45 154 -9 22 -85 17 -127 -9z"></path>
<path d="M3761 3661 c-42 -42 -14 -105 29 -66 23 21 26 58 6 74 -12 10 -19 8
-35 -8z"></path>
<path d="M3670 3439 c-36 -21 -66 -46 -68 -54 -4 -18 11 -19 40 -4 12 6 24 7
29 2 5 -5 -18 -91 -57 -209 -44 -133 -68 -222 -71 -268 -4 -40 -2 -67 3 -65 5
2 38 22 72 43 64 40 83 72 37 64 -30 -6 -32 9 -11 74 79 243 127 422 119 445
-8 19 -21 15 -93 -28z"></path>
<path d="M4290 3444 c-80 -22 -136 -58 -222 -145 -98 -98 -166 -230 -175 -338
-9 -103 15 -130 84 -96 29 15 116 100 162 160 21 29 22 29 16 5 -26 -98 -34
-155 -26 -163 6 -6 29 1 63 20 l53 30 18 -23 c14 -18 28 -24 58 -24 82 0 187
140 177 238 -3 26 -17 73 -32 104 -14 31 -26 66 -26 78 0 34 29 79 55 86 33 8
45 -2 42 -38 -1 -17 3 -33 9 -35 12 -4 76 126 68 139 -3 4 -26 8 -52 8 -58 0
-105 -35 -148 -107 -37 -63 -37 -126 -1 -207 15 -32 27 -72 27 -88 0 -88 -92
-140 -146 -81 -23 25 -25 25 -44 8 -31 -28 -36 -10 -16 63 10 37 21 80 24 96
4 25 2 27 -17 21 l-21 -6 20 51 c22 57 26 130 8 148 -19 19 -26 14 -33 -20
-23 -117 -105 -284 -176 -360 -67 -71 -92 -38 -65 84 29 128 118 250 220 302
47 24 69 29 127 28 66 0 71 1 80 25 11 31 -3 53 -35 52 -11 0 -46 -7 -76 -15z"></path>
<path d="M2180 2193 c-274 -33 -465 -318 -395 -588 39 -149 147 -265 247 -265
59 0 129 59 177 148 33 61 34 206 2 200 -12 -2 -18 -20 -22 -75 -9 -91 -24
-136 -60 -178 -38 -43 -69 -50 -122 -27 -55 25 -92 64 -131 137 -30 58 -31 64
-31 185 1 120 2 128 33 191 46 94 100 152 180 191 62 31 73 33 167 32 87 0
106 -3 150 -26 60 -31 116 -82 139 -127 39 -74 27 -190 -24 -236 -51 -46 -144
-23 -276 70 -36 25 -67 45 -69 45 -2 0 -33 18 -67 40 -78 50 -118 52 -147 11
-26 -36 -26 -41 -1 -41 33 0 82 -24 197 -97 169 -108 220 -125 311 -103 111
26 182 163 152 295 -29 131 -135 206 -310 218 -36 3 -81 3 -100 0z"></path>
<path d="M3967 2037 c-70 -44 -86 -75 -34 -69 35 4 35 -11 1 -125 -42 -143
-55 -185 -75 -253 -10 -36 -39 -135 -64 -220 -53 -181 -67 -287 -41 -313 16
-15 20 -15 45 -2 16 8 40 28 54 45 31 36 37 37 37 6 0 -31 23 -50 51 -41 33
11 126 101 171 168 21 31 40 57 42 57 1 0 -6 -30 -15 -68 -19 -70 -24 -122
-12 -122 15 0 105 64 129 92 30 37 18 64 -16 33 -30 -27 -30 3 2 113 22 74 20
94 -7 72 -19 -16 -20 -1 -2 43 22 51 28 102 17 131 -11 30 -40 35 -40 8 0 -21
-42 -163 -61 -207 -24 -55 -93 -170 -123 -202 -16 -18 -37 -33 -48 -33 -34 0
-22 118 24 220 71 157 199 269 329 287 45 7 56 13 67 36 7 15 21 27 32 27 18
0 18 -2 0 -57 -10 -32 -32 -103 -48 -158 -17 -55 -40 -131 -52 -170 -12 -38
-24 -96 -27 -127 -7 -66 6 -79 57 -58 35 14 120 103 120 125 0 21 -8 19 -47
-15 -36 -32 -53 -38 -53 -17 0 17 30 128 75 277 20 69 43 145 49 170 10 38 17
47 47 56 41 14 54 44 14 37 -30 -6 -33 12 -11 75 8 23 12 43 8 45 -18 10 -70
-24 -76 -50 -18 -74 -58 -113 -114 -113 -26 0 -107 -36 -162 -73 -128 -85
-246 -242 -299 -398 -12 -35 -33 -81 -47 -101 -26 -40 -54 -50 -54 -20 0 32
55 231 146 532 29 93 31 101 68 243 26 97 33 157 19 157 -5 -1 -38 -20 -76
-43z"></path>
<path d="M3058 2024 c-51 -25 -66 -38 -61 -50 4 -10 13 -14 28 -10 36 9 37
-15 4 -121 -17 -54 -38 -125 -48 -158 -10 -33 -33 -105 -51 -160 -66 -203 -91
-301 -92 -361 -1 -33 2 -66 6 -72 16 -26 82 -5 120 37 21 23 36 27 36 10 0 -6
7 -26 16 -44 17 -38 47 -49 100 -39 43 8 143 97 179 158 29 50 45 131 24 124
-7 -2 -17 -18 -22 -34 -13 -45 -78 -136 -116 -161 -39 -27 -60 -29 -87 -9 -62
46 36 370 129 427 38 22 83 25 90 5 3 -8 1 -31 -4 -51 -13 -46 -5 -76 15 -54
13 15 76 170 76 189 0 18 -82 -1 -140 -33 -106 -58 -218 -217 -250 -357 -9
-40 -21 -63 -44 -82 -32 -28 -51 -34 -60 -19 -7 10 58 262 82 321 36 88 145
460 157 538 8 52 3 52 -87 6z"></path>
<path d="M5117 1950 c-14 -12 -45 -50 -68 -85 -23 -36 -43 -65 -45 -65 -2 0
-1 28 2 63 l5 62 -65 -70 c-71 -76 -82 -99 -40 -89 25 6 25 6 18 -32 -4 -22
-22 -100 -41 -174 -55 -213 -61 -240 -54 -244 3 -2 18 6 34 18 22 18 32 42 56
136 34 137 75 259 104 309 36 63 78 111 97 111 22 0 37 18 42 49 4 32 -13 36
-45 11z"></path>
<path d="M4818 1847 c-172 -101 -328 -361 -328 -547 0 -111 74 -123 163 -25
51 56 139 196 169 268 62 151 24 257 -66 186 -47 -37 -107 -159 -78 -159 4 0
21 26 38 57 34 64 48 73 64 43 35 -65 -120 -400 -185 -400 -28 0 -38 29 -31
95 13 125 64 255 131 333 38 44 119 92 154 92 22 0 38 38 27 65 -7 19 -13 18
-58 -8z"></path>
<path d="M2731 1660 c-165 -59 -304 -225 -318 -379 -13 -136 68 -149 200 -31
61 55 65 54 43 -12 -8 -24 -16 -58 -20 -75 -5 -31 -4 -33 25 -33 48 0 129 39
129 62 0 17 -5 19 -30 13 -37 -8 -37 -4 -5 100 14 44 25 81 25 83 0 1 -12 2
-26 2 -14 0 -24 3 -22 8 31 60 39 91 36 136 -3 28 -8 59 -13 70 -9 20 -6 20
135 4 22 -3 25 1 28 35 l3 37 -68 0 c-41 -1 -89 -8 -122 -20z m2 -72 c-13 -58
-39 -129 -70 -192 -34 -68 -120 -166 -146 -166 -42 0 -49 71 -15 163 34 93
157 215 220 217 12 0 15 -6 11 -22z"></path>
<path d="M3473 1626 c-65 -32 -81 -56 -38 -56 30 0 32 -18 9 -81 -16 -47 -40
-129 -80 -272 -39 -143 -29 -198 33 -182 33 8 97 72 148 147 19 29 35 50 35
46 0 -3 -7 -42 -15 -85 -8 -43 -15 -81 -15 -85 0 -17 28 -6 88 33 65 43 83 75
36 66 -15 -3 -28 0 -30 8 -6 14 51 219 102 371 19 55 34 106 34 112 0 13 -81
-17 -85 -32 -32 -113 -63 -204 -88 -256 -76 -160 -149 -259 -181 -247 -21 8
-15 39 49 232 81 243 97 318 68 314 -4 -1 -36 -15 -70 -33z"></path>
</g>
</svg>