<svg version="1.0" xmlns="http://www.w3.org/2000/svg" width="933.3" height="933.3" viewBox="0 0 700 700"><g fill="#3b0b37"><path d="M268 129c-15.9 5.8-29.8 21.6-38.1 43.4-2.3 6.2-3 7.1-6.3 8.2-4.3 1.5-4.3 1.5-2.2-9.1 1.9-9.5 2.9-19.5 1.9-19.5a72.5 72.5 0 0 0-14.3 13.9c0 1.6 2.1 1.4 4.3-.7 2-1.7 2-1.6 1.3 6.5-.3 4.5-.9 8.9-1.2 9.7-.7 1.8-3.5 2.9-14.4 5.7a39.5 39.5 0 0 0-9.8 3.4c-.8.7-1.5 2.8-1.5 4.6-.2 3 .1 3.4 2.2 3.1 1.4-.2 3.3.5 4.7 1.9 2 1.9 2.4 3.2 2.4 7.9 0 3.1-.3 6-.7 6.4-.4.3-2.3-.9-4.2-2.8-2-1.9-5.8-4.6-8.5-6-6.2-3.3-15-3.5-21.3-.6-8.3 3.7-18.6 16.6-22.9 28.7-1.1 3-1.8 8-1.8 13.3-.1 7.2.3 9.1 2.2 12.2 3.7 5.9 6.6 7.3 15.2 7.3 8.4 0 13.5-1.9 22.6-8.6 14-10.3 30.3-35.9 37.4-59 2.2-7.2 2.6-7.8 5.9-8.8a20 20 0 0 1 3.7-.8c.1.1-.2 2.2-.7 4.7-6.2 29.7-1.7 47.7 12.3 49.6 13.6 1.9 27.2-10.8 33.3-31.1.9-3.3 1.1-5.5.3-8.1-1.2-4.3-3.2-4-3.6.7-1.4 18.3-13.5 32.3-26.4 30.6-7.2-1-10.3-5.8-11.4-17.7-.8-8.5 1.3-27.6 3.3-29.6.8-.7 3.3-1.8 5.6-2.4 21.7-5.5 35.3-15.4 43.5-31.8 6.4-13 5.5-22.5-2.3-25.8-4.2-1.7-3.8-1.7-10.5.6zm7.9 7.3c3 2.5 4.2 7.4 3.1 12.4-2.3 10.2-9.2 17.8-21.1 23.2-7.4 3.3-22.7 7.7-23.6 6.7-.9-.9 2.4-10.7 6.4-19a46.8 46.8 0 0 1 23.8-24.4c3.3-1.2 9.3-.6 11.4 1.1zm-65.4 58.9c-8.6 28.6-15.7 42.5-27.2 52.7a38.7 38.7 0 0 1-25.9 11.5c-6.2.1-7.5-.2-10.6-2.6-9.1-6.9-7-26.1 4.3-38.3 11.5-12.5 24-11.3 38.3 3.5a32 32 0 0 0 7.4 6.5c1-1 3.1-14.1 3.2-19.8 0-3.2-.7-7.3-1.4-9.2-1.5-3.4-1.5-3.5 1.2-4.1 1.5-.3 3.8-1 5.2-1.4 4.7-1.6 6.2-1.2 5.5 1.2zM376.2 137.8c-7.5 3.7-9.2 6.3-4.4 7 4.1.6 4 1.6-1.9 21.4l-2.1 6.7-5.8 2.2a56.9 56.9 0 0 0-23.5 19.5c-8.6 12.3-14.6 31.6-11.6 37.3 3.6 6.6 18.3-4.1 27.7-20.3 4-6.9 4-6.1-.4 10.2-3.5 12.9-3.2 13.7 4 10.2 6.6-3.4 10.8-6.8 10.2-8.5-.5-1.1-1.1-1.2-3-.3-4.6 2.1-4.8 0-1.4-12.3 3.7-13.3 6.7-23.3 8.2-27.1.8-2.3 1.5-2.7 3.4-2.2s2.4.2 2.4-1.3c0-1-.7-2.9-1.6-4.1-.9-1.3-1.4-3.1-1.1-4l3.1-10.7 4.1-14c2-6.8 2.9-13.5 1.9-13.4-.5.1-4.2 1.8-8.2 3.7zm-12.4 49.4c-2.3 8.2-2.8 9.2-2.8 5.5 0-3.2-.9-5.7-2.1-5.7-.5 0-.9.6-.9 1.4 0 2.8-5 16.7-8.1 22.6-4.4 8.4-10.6 15.2-13.3 14.8-1.9-.3-2.1-.9-2-7.8 0-5.5.7-8.9 2.4-13a46.3 46.3 0 0 1 22.7-23.6c6.3-2.2 6.3-2.1 4.1 5.8zM396.1 139a41.6 41.6 0 0 1-6.2 2.9c-1.6.5-2.9 1.7-2.9 2.6 0 1.3.6 1.5 3 1 2.5-.5 3-.3 3 1.2a255 255 0 0 1-8.9 34.8c-2.6 9-11.7 39.6-13.7 45.9-.8 2.6-1.3 5-1 5.3.2.3 2-.1 4-.8 2.8-1 3.8-2.2 5.2-5.8a130.4 130.4 0 0 1 22.2-38.4c6.7-6.9 6.8-4.5.7 13.3a172.9 172.9 0 0 0-8.5 32.6c0 2.6 1 3 3.8 1.5.9-.6 3.8-2 6.5-3.2 3.2-1.5 4.7-2.9 4.7-4.2 0-1.6-.5-1.8-3-1.2-2.7.6-3 .4-3-1.7 0-1.3 2.9-11 6.5-21.5s6.5-20.3 6.5-21.7c0-3.7-3.7-5.3-7.6-3.3a57 57 0 0 0-17.5 18.7c-4.2 6.2-6 7.2-4.1 2.3.6-1.5 2.2-6.6 3.6-11.3l5.6-18.8c3.4-11.3 6.9-26.5 7-30 0-2.7-1.4-2.7-5.9-.2zM331.7 152.8c-2.2 2.4-2.2 6.8 0 7.7 2.4.9 5.5-3.1 5.1-6.4-.4-3.2-2.9-3.8-5.1-1.3zM325.5 174c-6 3.5-6.1 3.6-6.8 1-1.8-6.8-23.5 4.8-34.7 18.6-8.7 10.7-17 29.6-17 38.7 0 3.7 3.4 7 6.3 6.1 2.9-.8 11.9-9.5 17.5-16.9 2.5-3.3 4.2-5.1 3.8-4-2.9 7.8-4.5 18.5-2.8 18.5 1.1 0 10.4-5.7 13.1-8 2.9-2.5 2.2-5.7-.8-4-4.6 2.4-4.7 1.7-.9-11.3 1.1-3.7 1.8-7 1.5-7.3-.3-.3-1.5 0-2.7.6-1.2.7-2 .8-1.8.3 4.1-7.7 5.5-17.6 2.8-20.7-.9-1.2-1-2-.3-2.7 1.5-1.5 12-2.4 13.6-1.1.8.7 1.8.7 2.7.2.8-.6 2.3-1 3.3-1 2.2 0 2.1.6-5.5 23.5-5.9 18-8.3 30.5-5.9 30.5 2.2 0 13.1-8 13.1-9.6 0-1.2-.6-1.5-2.5-1-1.4.4-2.5.4-2.5 0 0-1.6 3.4-13.7 6-21.5a210 210 0 0 0 7.4-28.2c.6-4.6-.2-4.6-6.9-.7zm-24.9 11.7-2.1 8.3a99.7 99.7 0 0 1-16.3 32c-6.3 7-7.7 6.3-6.9-3.3a59.6 59.6 0 0 1 20.5-36.1c4.3-3 5.5-3.3 4.8-.9zM463.5 196.7c-11.5 3.5-22 15-26 28.5-2.8 9.5-1.2 16.8 3.7 16.8 3.9 0 10.5-4 16.2-9.7 5.2-5.3 5.5-5.4 4.6-2.4l-2 6.3c-.5 1.8-1 4.6-1 6.2 0 2.8.1 2.8 3.8 2.2 6.4-1 11.4-3.5 11-5.4-.2-1.2-1.1-1.6-3.1-1.4-3.4.4-3.5-1.1-.7-9.1 2.5-7.2 2.5-7.7-.4-7.7h-2.3l2.4-4.8a14 14 0 0 0 2-9c-.9-7.9-3.8-8.1-5.2-.3-1.7 9.1-11.9 24.6-18.6 28.1-1.9 1.1-2.4 1-3.6-.6-2-2.6-.8-11.5 2.3-17.7 8-15.7 22.6-21 35.3-12.8a10 10 0 0 0 4 1.6c.9 0 1.7.8 1.9 1.8.4 2.1-3.1 13.8-8.9 30-2.2 6-3.7 11.2-3.4 11.7.6 1 7.5-1 7.5-2.3 0-2.4 8.2-17.7 11.6-21.6 4.2-4.9 11-10.1 13.1-10.1 2 0 1.6 2.1-2.3 10.6-4.5 9.8-8 19.6-8.9 25.1l-.7 4.3h4c5.8 0 10.2-1.8 10.2-4.2 0-1.4-.5-1.8-1.9-1.3a3 3 0 0 1-3-.9c-.9-1.1.2-4.3 5.4-15.6 7.5-16.2 8.2-20.7 3.3-22.4-3.8-1.3-10.1 1.3-16.4 6.9l-5.2 4.5 2.5-7.1c1.3-3.9 2.3-8.5 2.1-10.2-.3-3.1-.4-3.1-5.3-2.9-4.4.3-5.1 0-6-2-2-4.5-12.6-6-22-3.1zM547.4 209.1c-.3.6.5 2.2 2 3.5 1.4 1.4 2.6 2.7 2.6 2.9l-2.6 7.3-2.6 7-3.6-1c-11.4-3.1-22.1 1.9-27.9 13.1-5.5 10.6-4.2 20.1 2.8 20.1 4 0 12.1-4.4 16.8-9.1 2.6-2.6 4.1-3.6 3.6-2.4-3 8.2-5.5 15.7-5.5 17 0 1.1 1.2 1.5 4.8 1.5 5.9 0 9.4-.9 8.9-2.3-.2-.7-1.4-1.4-2.8-1.7-3.7-1-3.1-3.9 4.6-22.3 1.4-3.3 1.8-3.6 3.6-2.6 3 1.5 3.6.2 1.6-3.2-1.7-3-1.6-3.2 1.8-11.3 2-4.5 3.7-9.4 3.8-11 .2-2.4-.3-2.9-5.3-4.6l-5.7-2a4 4 0 0 0-.9 1.1zm-5.6 24c2.6 1 2.7 2.4.7 7l-1.4 3.4-.1-3.2c0-5.5-1.7-4.6-5.4 3.1-6.7 14-17.6 18.5-17.6 7.4a27 27 0 0 1 6.7-15c4.5-4.1 10.7-5 17.1-2.7zM279.6 309.2c-3.2 10.2-3.2 10.8-.1 16.4 4 7.1 5.5 9.4 12.3 18.2l6.4 8.3-1.8 7.2c-6 24.9-14.5 39.6-25.9 44.8-4.9 2.3-13 2.4-18 .3-14.9-6.2-22.4-26.8-15.2-41.6 3.6-7.4 7.4-10.1 14.9-10.6 4.8-.4 6.7 0 11.1 2.2a52.7 52.7 0 0 1 16.4 14.3c.9 1.3 2 2.3 2.7 2.3a43 43 0 0 0 11.6-10.9c0-2.1-2.1-2.2-4.6-.2a11 11 0 0 1-3.3 2.1c-.3 0-3-2.3-6-5.1-7.7-7.1-14.1-10.2-21.6-10.3-19.1-.3-31.1 17.2-27.5 39.8 1.9 11.9 7.6 20.3 16.8 24.7a27.1 27.1 0 0 0 23.2-1.5c13.4-8.3 24.4-25.1 29.6-45.1.9-3.3 1.8-6.3 2-6.6.2-.4 5.1 4.1 10.8 10l10.5 10.6V391c-.1 16.8 2.4 24 8.1 24 4.8 0 9.7-8.4 10.7-18.4.9-10 0-12.8-6.7-20l-6-6.3 1.5-7.8c4.5-23.1 12.2-37.8 22.3-42.1 4.9-2.1 14-1.4 15.8 1.1a14 14 0 0 1 1.4 6.7c0 7.6 2.2 6 4.3-3 .9-4.2 1.7-8.9 1.7-10.4 0-2.4-.3-2.6-5.2-3a30.1 30.1 0 0 0-27.7 10.9 111.4 111.4 0 0 0-16.2 38c-.7 2.9-1.5 5.3-1.9 5.3-.6 0-14.9-14.5-18.7-19l-2.1-2.5 1.9-8.5c2.3-10.3 2.2-10 .4-10-1.5 0-3.9 3.9-5.9 9.8l-1.2 3.4-6.3-9.1c-8.1-11.8-9.4-15.2-9.2-22.9.2-9.1-2-8.3-5.3 2zm53.3 78.4c4.5 5.9 5.5 14.4 2.3 18.4-1.9 2.3-2.2 2.4-3.8.8-.9-.9-2-3.6-2.5-6-1-5.4-1.2-17.8-.1-17.8.4 0 2.2 2.1 4.1 4.6zM411.9 318.3a47.6 47.6 0 0 0-20.8 25.9c-3.2 7.9-4.2 9.5-6.9 10.7-3.8 1.7-4.2 4.1-.7 4.1 2.9 0 3 .5 1 7.9l-4 16.6-3.9 16-3.6 13a131.8 131.8 0 0 1-11.6 31.2c-3.5 4.6-8.4 6.7-12.9 5.4-1.8-.5-3.6-.6-3.9-.3-1.2 1.2-.5 5 1.2 6.5 7.7 6.9 19.4-6.2 26.8-29.8 1.5-4.9 3.7-9.6 4.9-10.8 1.3-1.2 2.8-4.5 3.4-7.2.6-2.8 2.9-11.8 5.1-20l5.6-21.8 1.6-6.7h4.4c5.5 0 6.1-2.5.9-3.4-1.9-.4-3.5-1.2-3.5-1.8a105 105 0 0 1 8-22.6c2.3-3.9 4.2-5.8 7.5-7.4 4.1-2 4.5-2 6.8-.5 2.2 1.4 2.5 2.1 2 5.8-.5 3.3-.3 4.1.8 3.7 1.6-.5 5.3-13.3 4.5-15.4-.9-2.2-8.5-1.7-12.7.9zM376.1 333.9c-4.2 4.2-1.4 10.5 2.9 6.6 2.3-2.1 2.6-5.8.6-7.4-1.2-1-1.9-.8-3.5.8z"/><path d="M367 356.1a21.1 21.1 0 0 0-6.8 5.4c-.4 1.8 1.1 1.9 4 .4 1.2-.6 2.4-.7 2.9-.2.5.5-1.8 9.1-5.7 20.9a138.4 138.4 0 0 0-7.1 26.8c-.4 4-.2 6.7.3 6.5l7.2-4.3c6.4-4 8.3-7.2 3.7-6.4-3 .6-3.2-.9-1.1-7.4 7.9-24.3 12.7-42.2 11.9-44.5-.8-1.9-2.1-1.5-9.3 2.8zM429 355.6c-8 2.2-13.6 5.8-22.2 14.5a59 59 0 0 0-17.5 33.8c-.9 10.3 1.5 13 8.4 9.6 2.9-1.5 11.6-10 16.2-16 2.1-2.9 2.2-2.9 1.6-.5-2.6 9.8-3.4 15.5-2.6 16.3.6.6 2.9-.1 6.3-2l5.3-3 1.8 2.3c1.4 1.8 2.8 2.4 5.8 2.4 8.2 0 18.7-14 17.7-23.8-.3-2.6-1.7-7.3-3.2-10.4a29.8 29.8 0 0 1-2.6-7.8c0-3.4 2.9-7.9 5.5-8.6 3.3-.8 4.5.2 4.2 3.8-.1 1.7.3 3.3.9 3.5 1.2.4 7.6-12.6 6.8-13.9-.3-.4-2.6-.8-5.2-.8-5.8 0-10.5 3.5-14.8 10.7-3.7 6.3-3.7 12.6-.1 20.7 1.5 3.2 2.7 7.2 2.7 8.8 0 8.8-9.2 14-14.6 8.1-2.3-2.5-2.5-2.5-4.4-.8-3.1 2.8-3.6 1-1.6-6.3l2.4-9.6c.4-2.5.2-2.7-1.7-2.1l-2.1.6 2-5.1c2.2-5.7 2.6-13 .8-14.8-1.9-1.9-2.6-1.4-3.3 2a88.6 88.6 0 0 1-17.6 36c-6.7 7.1-9.2 3.8-6.5-8.4a46.7 46.7 0 0 1 22-30.2c4.7-2.4 6.9-2.9 12.7-2.8 6.6 0 7.1-.1 8-2.5 1.1-3.1-.3-5.3-3.5-5.2-1.1 0-4.6.7-7.6 1.5zM218 480.7a47.9 47.9 0 0 0-39.5 58.8c3.9 14.9 14.7 26.5 24.7 26.5 5.9 0 12.9-5.9 17.7-14.8 3.3-6.1 3.4-20.6.2-20-1.2.2-1.8 2-2.2 7.5-.9 9.1-2.4 13.6-6 17.8-3.8 4.3-6.9 5-12.2 2.7-5.5-2.5-9.2-6.4-13.1-13.7-3-5.8-3.1-6.4-3.1-18.5.1-12 .2-12.8 3.3-19.1 4.6-9.4 10-15.2 18-19.1 6.2-3.1 7.3-3.3 16.7-3.2 8.7 0 10.6.3 15 2.6a34 34 0 0 1 13.9 12.7c3.9 7.4 2.7 19-2.4 23.6-5.1 4.6-14.4 2.3-27.6-7a81.6 81.6 0 0 0-6.9-4.5c-.2 0-3.3-1.8-6.7-4-7.8-5-11.8-5.2-14.7-1.1-2.6 3.6-2.6 4.1-.1 4.1 3.3 0 8.2 2.4 19.7 9.7 16.9 10.8 22 12.5 31.1 10.3 11.1-2.6 18.2-16.3 15.2-29.5-2.9-13.1-13.5-20.6-31-21.8-3.6-.3-8.1-.3-10 0zM396.7 496.3c-7 4.4-8.6 7.5-3.4 6.9 3.5-.4 3.5 1.1.1 12.5l-7.5 25.3-6.4 22c-5.3 18.1-6.7 28.7-4.1 31.3 1.6 1.5 2 1.5 4.5.2 1.6-.8 4-2.8 5.4-4.5 3.1-3.6 3.7-3.7 3.7-.6s2.3 5 5.1 4.1a60 60 0 0 0 17.1-16.8c2.1-3.1 4-5.7 4.2-5.7l-1.5 6.8c-1.9 7-2.4 12.2-1.2 12.2 1.5 0 10.5-6.4 12.9-9.2 3-3.7 1.8-6.4-1.6-3.3-3 2.7-3-.3.2-11.3 2.2-7.4 2-9.4-.7-7.2-1.9 1.6-2 .1-.2-4.3 2.2-5.1 2.8-10.2 1.7-13.1-1.1-3-4-3.5-4-.8 0 2.1-4.2 16.3-6.1 20.7-2.4 5.5-9.3 17-12.3 20.2-1.6 1.8-3.7 3.3-4.8 3.3-3.4 0-2.2-11.8 2.4-22 7.1-15.7 19.9-26.9 32.9-28.7 4.5-.7 5.6-1.3 6.7-3.6.7-1.5 2.1-2.7 3.2-2.7 1.8 0 1.8.2 0 5.7a951 951 0 0 0-4.8 15.8l-5.2 17a76.4 76.4 0 0 0-2.7 12.7c-.7 6.6.6 7.9 5.7 5.8 3.5-1.4 12-10.3 12-12.5 0-2.1-.8-1.9-4.7 1.5-3.6 3.2-5.3 3.8-5.3 1.7 0-1.7 3-12.8 7.5-27.7 2-6.9 4.3-14.5 4.9-17 1-3.8 1.7-4.7 4.7-5.6 4.1-1.4 5.4-4.4 1.4-3.7-3 .6-3.3-1.2-1.1-7.5.8-2.3 1.2-4.3.8-4.5-1.8-1-7 2.4-7.6 5-1.8 7.4-5.8 11.3-11.4 11.3-2.6 0-10.7 3.6-16.2 7.3a82.4 82.4 0 0 0-29.9 39.8 50.6 50.6 0 0 1-4.7 10.1c-2.6 4-5.4 5-5.4 2 0-3.2 5.5-23.1 14.6-53.2 2.9-9.3 3.1-10.1 6.8-24.3 2.6-9.7 3.3-15.7 1.9-15.7-.5.1-3.8 2-7.6 4.3zM305.8 497.6c-5.1 2.5-6.6 3.8-6.1 5 .4 1 1.3 1.4 2.8 1 3.6-.9 3.7 1.5.4 12.1l-4.8 15.8-5.1 16c-6.6 20.3-9.1 30.1-9.2 36.1-.1 3.3.2 6.6.6 7.2 1.6 2.6 8.2.5 12-3.7 2.1-2.3 3.6-2.7 3.6-1 0 .6.7 2.6 1.6 4.4 1.7 3.8 4.7 4.9 10 3.9 4.3-.8 14.3-9.7 17.9-15.8 2.9-5 4.5-13.1 2.4-12.4-.7.2-1.7 1.8-2.2 3.4a41.6 41.6 0 0 1-11.6 16.1c-3.9 2.7-6 2.9-8.7.9-6.2-4.6 3.6-37 12.9-42.7 3.8-2.2 8.3-2.5 9-.5.3.8.1 3.1-.4 5.1-1.3 4.6-.5 7.6 1.5 5.4 1.3-1.5 7.6-17 7.6-18.9 0-1.8-8.2.1-14 3.3a60.7 60.7 0 0 0-25 35.7c-.9 4-2.1 6.3-4.4 8.2-3.2 2.8-5.1 3.4-6 1.9-.7-1 5.8-26.2 8.2-32.1 3.6-8.8 14.5-46 15.7-53.8.8-5.2.3-5.2-8.7-.6zM511.7 505c-1.4 1.2-4.5 5-6.8 8.5a54.6 54.6 0 0 1-4.5 6.5c-.2 0-.1-2.8.2-6.3l.5-6.2-6.5 7c-7.1 7.6-8.2 9.9-4 8.9 2.5-.6 2.5-.6 1.8 3.2a378 378 0 0 1-4.1 17.4c-5.5 21.3-6.1 24-5.4 24.4.3.2 1.8-.6 3.4-1.8 2.2-1.8 3.2-4.2 5.6-13.6 3.4-13.7 7.5-25.9 10.4-30.9 3.6-6.3 7.8-11.1 9.7-11.1 2.2 0 3.7-1.8 4.2-4.9.4-3.2-1.3-3.6-4.5-1.1z"/><path d="M481.8 515.3C464.6 525.4 449 551.4 449 570c0 11.1 7.4 12.3 16.3 2.5 5.1-5.6 13.9-19.6 16.9-26.8 6.2-15.1 2.4-25.7-6.6-18.6-4.7 3.7-10.7 15.9-7.8 15.9.4 0 2.1-2.6 3.8-5.7 3.4-6.4 4.8-7.3 6.4-4.3 3.5 6.5-12 40-18.5 40-2.8 0-3.8-2.9-3.1-9.5a64.4 64.4 0 0 1 13.1-33.3c3.8-4.4 11.9-9.2 15.4-9.2 2.2 0 3.8-3.8 2.7-6.5-.7-1.9-1.3-1.8-5.8.8zM273.1 534c-16.5 5.9-30.4 22.5-31.8 37.9-1.3 13.6 6.8 14.9 20 3.1 6.1-5.5 6.5-5.4 4.3 1.2-.8 2.4-1.6 5.8-2 7.5-.5 3.1-.4 3.3 2.5 3.3 4.8 0 12.9-3.9 12.9-6.2 0-1.7-.5-1.9-3-1.3-3.7.8-3.7.4-.5-10l2.5-8.3c0-.1-1.2-.2-2.6-.2-1.4 0-2.4-.3-2.2-.8 3.1-6 3.9-9.1 3.6-13.6-.3-2.8-.8-5.9-1.3-7-.9-2-.6-2 13.5-.4 2.2.3 2.5-.1 2.8-3.5l.3-3.7h-6.8c-4.1.1-8.9.8-12.2 2zm.2 7.2a91.7 91.7 0 0 1-7 19.2c-3.4 6.8-12 16.6-14.6 16.6-4.2 0-4.9-7.1-1.5-16.3 3.4-9.3 15.7-21.5 22-21.7 1.2 0 1.5.6 1.1 2.2zM347.3 537.4c-6.5 3.2-8.1 5.6-3.8 5.6 3 0 3.2 1.8.9 8.1-1.6 4.7-4 12.9-8 27.2-3.9 14.3-2.9 19.8 3.3 18.2 3.3-.8 9.7-7.2 14.8-14.7 1.9-2.9 3.5-5 3.5-4.6l-1.5 8.5-1.5 8.5c0 1.7 2.8.6 8.8-3.3 6.5-4.3 8.3-7.5 3.6-6.6-1.5.3-2.8 0-3-.8-.6-1.4 5.1-21.9 10.2-37.1 1.9-5.5 3.4-10.6 3.4-11.2 0-1.3-8.1 1.7-8.5 3.2a180 180 0 0 1-8.8 25.6c-7.6 16-14.9 25.9-18.1 24.7-2.1-.8-1.5-3.9 4.9-23.2 8.1-24.3 9.7-31.8 6.8-31.4-.4.1-3.6 1.5-7 3.3z"/></g></svg>